HIERARCHY
ROOT hip
{
  OFFSET 0.00112043 5.09927 -9.65472
  CHANNELS 6 Xposition Yposition Zposition Zrotation Xrotation Yrotation
  JOINT abdomen
  {
    OFFSET 0 -1.186 -1.5018
    CHANNELS 3 Zrotation Xrotation Yrotation
    JOINT abdomen2
    {
      OFFSET 0 9.964 0.2134
      CHANNELS 3 Zrotation Xrotation Yrotation
      JOINT chest
      {
        OFFSET 0 13.134 -3.2573
        CHANNELS 3 Zrotation Xrotation Yrotation
        JOINT neck
        {
          OFFSET 0 20.686 -1.6905
          CHANNELS 3 Zrotation Xrotation Yrotation
          JOINT head
          {
            OFFSET 0 7.238 -0.1237
            CHANNELS 3 Zrotation Xrotation Yrotation
            End Site
            {
              OFFSET 0 0 0
            }
          }
        }
        JOINT lCollar
        {
          OFFSET 1.7069 20.075 5.0056
          CHANNELS 3 Zrotation Xrotation Yrotation
          JOINT lShldr
          {
            OFFSET 13.6458 -0.047 -4.849
            CHANNELS 3 Zrotation Xrotation Yrotation
            JOINT lForeArm
            {
              OFFSET 28.3255 -0.9759 2.2888
              CHANNELS 3 Zrotation Xrotation Yrotation
              JOINT lHand
              {
                OFFSET 22.1583 -0.53 10.8316
                CHANNELS 3 Zrotation Xrotation Yrotation
                JOINT lThumb1
                {
                  OFFSET 0.786 0.112 2.5817
                  CHANNELS 3 Zrotation Xrotation Yrotation
                  JOINT lThumb2
                  {
                    OFFSET 0.3601 -0.878 4.2331
                    CHANNELS 3 Zrotation Xrotation Yrotation
                    JOINT lThumb2_End
                    {
                      OFFSET 1.8127 -1.216 2.2227
                      CHANNELS 3 Zrotation Xrotation Yrotation
                      End Site
                      {
                        OFFSET 0.0181 -0.0122 0.0222
                      }
                    }
                  }
                }
                JOINT lCarpal1
                {
                  OFFSET 0.9571 1.114 1.7695
                  CHANNELS 3 Zrotation Xrotation Yrotation
                  JOINT lIndex1
                  {
                    OFFSET 4.1246 0.487 4.1451
                    CHANNELS 3 Zrotation Xrotation Yrotation
                    JOINT lIndex2
                    {
                      OFFSET 3.4052 -1.454 2.7682
                      CHANNELS 3 Zrotation Xrotation Yrotation
                      JOINT lIndex2_End
                      {
                        OFFSET 1.4531 -1.795 1.2713
                        CHANNELS 3 Zrotation Xrotation Yrotation
                        End Site
                        {
                          OFFSET 0.0145 -0.0179 0.0127
                        }
                      }
                    }
                  }
                  JOINT lMid1
                  {
                    OFFSET 5.6954 0.21 2.1184
                    CHANNELS 3 Zrotation Xrotation Yrotation
                    JOINT lMid2
                    {
                      OFFSET 3.9766 -1.54 2.3863
                      CHANNELS 3 Zrotation Xrotation Yrotation
                      JOINT lMid2_End
                      {
                        OFFSET 1.4042 -1.926 1.125
                        CHANNELS 3 Zrotation Xrotation Yrotation
                        End Site
                        {
                          OFFSET 0.014 -0.0193 0.0113
                        }
                      }
                    }
                  }
                }
                JOINT lCarpal2
                {
                  OFFSET 2.0956 0.66 -0.3894
                  CHANNELS 3 Zrotation Xrotation Yrotation
                  JOINT lRing1
                  {
                    OFFSET 5.0395 -0.09 2.4971
                    CHANNELS 3 Zrotation Xrotation Yrotation
                    JOINT lRing2
                    {
                      OFFSET 3.7921 -1.552 1.4806
                      CHANNELS 3 Zrotation Xrotation Yrotation
                      JOINT lRing2_End
                      {
                        OFFSET 1.4655 -1.808 0.9609
                        CHANNELS 3 Zrotation Xrotation Yrotation
                        End Site
                        {
                          OFFSET 0.0147 -0.0181 0.0096
                        }
                      }
                    }
                  }
                  JOINT lPinky1
                  {
                    OFFSET 4.9141 -1.269 0.3591
                    CHANNELS 3 Zrotation Xrotation Yrotation
                    JOINT lPinky2
                    {
                      OFFSET 3.1477 -1.685 0.8462
                      CHANNELS 3 Zrotation Xrotation Yrotation
                      JOINT lPinky2_End
                      {
                        OFFSET 0.8055 -1.585 0.7955
                        CHANNELS 3 Zrotation Xrotation Yrotation
                        End Site
                        {
                          OFFSET 0.0081 -0.0158 0.008
                        }
                      }
                    }
                  }
                }
              }
            }
          }
        }
        JOINT rCollar
        {
          OFFSET -1.7069 20.075 5.0056
          CHANNELS 3 Zrotation Xrotation Yrotation
          JOINT rShldr
          {
            OFFSET -13.6458 -0.047 -4.849
            CHANNELS 3 Zrotation Xrotation Yrotation
            JOINT rForeArm
            {
              OFFSET -28.3255 -0.9759 2.2888
              CHANNELS 3 Zrotation Xrotation Yrotation
              JOINT rHand
              {
                OFFSET -22.1583 -0.53 10.8316
                CHANNELS 3 Zrotation Xrotation Yrotation
                JOINT rThumb1
                {
                  OFFSET -0.786 0.112 2.5817
                  CHANNELS 3 Zrotation Xrotation Yrotation
                  JOINT rThumb2
                  {
                    OFFSET -0.3601 -0.878 4.2331
                    CHANNELS 3 Zrotation Xrotation Yrotation
                    JOINT rThumb2_End
                    {
                      OFFSET -1.8127 -1.216 2.2227
                      CHANNELS 3 Zrotation Xrotation Yrotation
                      End Site
                      {
                        OFFSET -0.0181 -0.0122 0.0222
                      }
                    }
                  }
                }
                JOINT rCarpal1
                {
                  OFFSET -0.9571 1.114 1.7695
                  CHANNELS 3 Zrotation Xrotation Yrotation
                  JOINT rIndex1
                  {
                    OFFSET -4.1246 0.487 4.1451
                    CHANNELS 3 Zrotation Xrotation Yrotation
                    JOINT rIndex2
                    {
                      OFFSET -3.4052 -1.454 2.7682
                      CHANNELS 3 Zrotation Xrotation Yrotation
                      JOINT rIndex2_End
                      {
                        OFFSET -1.4531 -1.795 1.2713
                        CHANNELS 3 Zrotation Xrotation Yrotation
                        End Site
                        {
                          OFFSET -0.0145 -0.018 0.0127
                        }
                      }
                    }
                  }
                  JOINT rMid1
                  {
                    OFFSET -5.6954 0.21 2.1184
                    CHANNELS 3 Zrotation Xrotation Yrotation
                    JOINT rMid2
                    {
                      OFFSET -3.9766 -1.54 2.3863
                      CHANNELS 3 Zrotation Xrotation Yrotation
                      JOINT rMid2_End
                      {
                        OFFSET -1.4042 -1.926 1.125
                        CHANNELS 3 Zrotation Xrotation Yrotation
                        End Site
                        {
                          OFFSET -0.014 -0.0193 0.0113
                        }
                      }
                    }
                  }
                }
                JOINT rCarpal2
                {
                  OFFSET -2.0956 0.66 -0.3894
                  CHANNELS 3 Zrotation Xrotation Yrotation
                  JOINT rRing1
                  {
                    OFFSET -5.0395 -0.09 2.4971
                    CHANNELS 3 Zrotation Xrotation Yrotation
                    JOINT rRing2
                    {
                      OFFSET -3.7921 -1.552 1.4806
                      CHANNELS 3 Zrotation Xrotation Yrotation
                      JOINT rRing2_End
                      {
                        OFFSET -1.4655 -1.808 0.9609
                        CHANNELS 3 Zrotation Xrotation Yrotation
                        End Site
                        {
                          OFFSET -0.0147 -0.0181 0.0096
                        }
                      }
                    }
                  }
                  JOINT rPinky1
                  {
                    OFFSET -4.9141 -1.269 0.3592
                    CHANNELS 3 Zrotation Xrotation Yrotation
                    JOINT rPinky2
                    {
                      OFFSET -3.1477 -1.685 0.8462
                      CHANNELS 3 Zrotation Xrotation Yrotation
                      JOINT rPinky2_End
                      {
                        OFFSET -0.8055 -1.585 0.7955
                        CHANNELS 3 Zrotation Xrotation Yrotation
                        End Site
                        {
                          OFFSET -0.0081 -0.0158 0.008
                        }
                      }
                    }
                  }
                }
              }
            }
          }
        }
      }
    }
  }
  JOINT lThigh
  {
    OFFSET 8.367 -8.2066 0.5982
    CHANNELS 3 Zrotation Xrotation Yrotation
    JOINT lShin
    {
      OFFSET 2.1923 -43.463 -0.4932
      CHANNELS 3 Zrotation Xrotation Yrotation
      JOINT lFoot
      {
        OFFSET 0.7333 -45.8593 -2.6451
        CHANNELS 3 Zrotation Xrotation Yrotation
        End Site
        {
          OFFSET 2.6618 -4.2699 12.3931
        }
      }
    }
  }
  JOINT rThigh
  {
    OFFSET -8.367 -8.2066 0.5982
    CHANNELS 3 Zrotation Xrotation Yrotation
    JOINT rShin
    {
      OFFSET -2.1923 -43.463 -0.4931
      CHANNELS 3 Zrotation Xrotation Yrotation
      JOINT rFoot
      {
        OFFSET -0.7333 -45.8593 -2.6451
        CHANNELS 3 Zrotation Xrotation Yrotation
        End Site
        {
          OFFSET -2.6618 -4.2699 12.3931
        }
      }
    }
  }
}
MOTION
Frames:	4
Frame Time:	0.0333333
0 91.7903 2.51682 0 0 -0 0 0 -0 0 0 -0 0 0 -0 0 0 -0 0 0 -0 0 0 -0 1.66051 0.0835086 5.75766 -0.0175111 0.895433 15.7816 7.95139e-016 -1.98785e-016 -0 5.46658e-016 -3.97569e-016 -0 5.96354e-016 0 -0 3.97569e-016 1.98785e-016 9.54166e-015 1.49089e-016 -3.97569e-016 -0 6.4605e-016 0 3.18055e-015 5.96354e-016 0 3.18055e-015 8.94531e-016 -1.98785e-016 6.36111e-015 6.4605e-016 0 3.18055e-015 5.96354e-016 0 3.18055e-015 8.94531e-016 -1.98785e-016 6.36111e-015 1.49089e-016 -3.97569e-016 -0 6.4605e-016 0 3.18055e-015 5.96354e-016 0 3.18055e-015 8.94531e-016 -1.98785e-016 6.36111e-015 6.4605e-016 0 3.18055e-015 5.96354e-016 0 3.18055e-015 8.94531e-016 -1.98785e-016 6.36111e-015 0 0 -0 -1.4496 0.0636048 -5.0245 -1.74811 1.20616 -16.8394 -1.19271e-015 1.98785e-016 -3.18055e-015 -3.97569e-016 1.98785e-016 -3.18055e-015 -2.98177e-016 1.98785e-016 -3.18055e-015 -2.98177e-016 3.97569e-016 -0 4.96962e-016 0 -6.36111e-015 -9.93923e-017 3.97569e-016 -0 -8.94531e-016 5.96354e-016 -0 -3.97569e-016 3.97569e-016 -0 -9.93923e-017 3.97569e-016 -0 -8.94531e-016 5.96354e-016 -0 -3.97569e-016 3.97569e-016 -0 4.96962e-016 0 -6.36111e-015 -9.93923e-017 3.97569e-016 -0 -8.94531e-016 5.96354e-016 -0 -3.97569e-016 3.97569e-016 -0 -9.93923e-017 3.97569e-016 -0 -8.94531e-016 5.96354e-016 -0 -3.97569e-016 3.97569e-016 -0 -4.66111 -0.998717 0.12318 0.00986924 1.54847 0.176523 4.65186 -0.572283 -0.254274 4.66111 -0.998765 -0.123176 -0.00986867 1.54869 -0.176537 -4.65186 -0.572453 0.25427 
-18.7336 46.1484 13.7129 0.762868 -47.8861 3.08485 -0.776276 5.28572 -0.175006 -1.5462 10.5733 -0.279517 -1.5462 10.5733 -0.279516 -0.0252894 3.5455 0.0967978 11.0462 2.5103 18.9137 7.76062 -0.933752 22.6719 -21.7584 6.46807 -1.05373 -27.9647 17.1954 7.88912 14.3796 24.7115 -1.70063 -4.77083e-015 0 1.59028e-015 -4.77083e-015 0 1.59028e-015 -1.59028e-015 -9.54166e-015 -0 -4.37326e-015 3.18055e-015 -0 -6.36111e-015 -6.36111e-015 4.77083e-015 -6.36111e-015 -6.36111e-015 3.18055e-015 -3.97569e-015 -3.18055e-015 -0 -6.36111e-015 -6.36111e-015 4.77083e-015 -6.36111e-015 -6.36111e-015 3.18055e-015 -3.97569e-015 -3.18055e-015 -0 -4.37326e-015 3.18055e-015 -0 -6.36111e-015 -6.36111e-015 4.77083e-015 -6.36111e-015 -6.36111e-015 3.18055e-015 -3.97569e-015 -3.18055e-015 -0 -6.36111e-015 -6.36111e-015 4.77083e-015 -6.36111e-015 -6.36111e-015 3.18055e-015 -3.97569e-015 -3.18055e-015 -0 6.21076 -3.35975 1.68527 34.2917 -8.77229 3.49738 15.6092 30.6723 15.0162 12.2015 4.9994 -4.07212 7.06225e-031 6.36111e-015 -6.36111e-015 -2.93814e-007 -7.09591e-007 3.72778e-007 1.59028e-015 9.54166e-015 9.54166e-015 3.18055e-015 6.36111e-015 -3.18055e-015 -3.18055e-015 0 9.54166e-015 -2.93814e-007 -7.09591e-007 3.72778e-007 3.18055e-015 3.18055e-015 -0 -3.18055e-015 0 9.54166e-015 -2.93814e-007 -7.09591e-007 3.72778e-007 3.18055e-015 3.18055e-015 -0 3.18055e-015 6.36111e-015 -3.18055e-015 -3.18055e-015 0 9.54166e-015 -2.93814e-007 -7.09591e-007 3.72778e-007 3.18055e-015 3.18055e-015 -0 -3.18055e-015 0 9.54166e-015 -2.93814e-007 -7.09591e-007 3.72778e-007 3.18055e-015 3.18055e-015 -0 -1.50778 -14.9028 9.73534 6.09797 30.0868 -8.82222 5.15296 8.95563 -2.02664 -4.97198 -4.29963 -8.75665 -4.76929 0.0251616 5.66942 -8.44203 1.46764 -9.92356 
-33.909 5.90276 25.5267 34.6795 -83.9597 37.5473 -1.37486 9.35928 -0.43389 -2.73269 18.7262 -0.649746 -2.73269 18.7262 -0.649747 -0.0532029 6.30396 0.172788 18.5523 3.92803 33.6805 14.267 -1.3719 40.3138 -38.9112 11.2601 -6.51226 -47.3456 28.7122 1.36622 27.9698 43.6115 -7.26913 -3.18055e-015 3.18055e-015 3.18055e-015 3.26664e-006 3.95035e-007 -9.18648e-008 -4.77083e-015 -3.18055e-015 -0 -3.18055e-015 3.18055e-015 3.18055e-015 1.27222e-014 3.18055e-015 6.36111e-015 3.26664e-006 3.95035e-007 -9.18648e-008 1.59028e-015 -3.18055e-015 3.18055e-015 1.27222e-014 3.18055e-015 6.36111e-015 3.26664e-006 3.95035e-007 -9.18648e-008 1.59028e-015 -3.18055e-015 3.18055e-015 -3.18055e-015 3.18055e-015 3.18055e-015 1.27222e-014 3.18055e-015 6.36111e-015 3.26664e-006 3.95035e-007 -9.18648e-008 1.59028e-015 -3.18055e-015 3.18055e-015 1.27222e-014 3.18055e-015 6.36111e-015 3.26664e-006 3.95035e-007 -9.18648e-008 1.59028e-015 -3.18055e-015 3.18055e-015 11.1786 -5.96725 3.00719 63.9343 -15.2639 10.4529 9.82996 36.023 48.761 21.7119 8.76114 -7.9498 2.58904e-006 -1.24265e-006 5.13646e-006 2.56823e-006 1.73357e-006 -1.29452e-006 -1.73357e-006 2.56823e-006 6.21325e-007 -3.18055e-015 2.38542e-015 -3.18055e-015 2.58904e-006 -1.24265e-006 5.13646e-006 2.56823e-006 1.73357e-006 -1.29452e-006 -1.73357e-006 2.56823e-006 6.21325e-007 2.58904e-006 -1.24265e-006 5.13646e-006 2.56823e-006 1.73357e-006 -1.29452e-006 -1.73357e-006 2.56823e-006 6.21325e-007 -3.18055e-015 2.38542e-015 -3.18055e-015 2.58904e-006 -1.24265e-006 5.13646e-006 2.56823e-006 1.73357e-006 -1.29452e-006 -1.73357e-006 2.56823e-006 6.21325e-007 2.58904e-006 -1.24265e-006 5.13646e-006 2.56823e-006 1.73357e-006 -1.29452e-006 -1.73357e-006 2.56823e-006 6.21325e-007 3.67066 -25.352 18.3032 21.9865 50.327 -24.0875 5.72725 16.3129 -2.05165 -13.1183 -6.7859 -15.611 -8.52291 0.415362 10.1182 -11.2855 1.55024 -17.8919 
-36.0899 -0.0244365 27.5327 94.8438 -86.0578 97.7091 -1.45869 9.9381 -0.481335 -2.89819 19.8851 -0.717665 -2.89818 19.8851 -0.717664 -0.0578988 6.69708 0.183745 19.5602 4.06884 35.7943 15.2216 -1.4019 42.8346 -41.2847 11.9236 -7.31088 -49.9323 30.2355 0.348037 30.356 46.2395 -8.59899 1.76122e-006 -1.0074e-006 1.99489e-006 -5.36549e-006 1.18453e-006 -1.55186e-006 1.11319e-014 1.59028e-015 3.18055e-015 4.77083e-015 0 -6.36111e-015 1.76122e-006 -1.0074e-006 1.99489e-006 -5.36549e-006 1.18453e-006 -1.55186e-006 1.11319e-014 -4.77083e-015 3.18055e-015 1.76122e-006 -1.0074e-006 1.99489e-006 -5.36549e-006 1.18453e-006 -1.55186e-006 1.11319e-014 -4.77083e-015 3.18055e-015 4.77083e-015 0 -6.36111e-015 1.76122e-006 -1.0074e-006 1.99489e-006 -5.36549e-006 1.18453e-006 -1.55186e-006 1.11319e-014 -4.77083e-015 3.18055e-015 1.76122e-006 -1.0074e-006 1.99489e-006 -5.36549e-006 1.18453e-006 -1.55186e-006 1.11319e-014 -4.77083e-015 3.18055e-015 11.8982 -6.33909 3.19739 68.24 -16.1539 11.2649 8.68606 34.8134 53.2053 22.7801 9.17649 -8.5046 8.82781e-032 1.59028e-015 -3.18055e-015 3.18055e-015 -3.97569e-015 -6.36111e-015 -3.18055e-015 -4.77083e-015 -0 -4.41391e-032 7.95139e-016 3.18055e-015 8.82781e-032 1.59028e-015 -3.18055e-015 3.18055e-015 -3.97569e-015 -6.36111e-015 -3.18055e-015 -4.77083e-015 -0 8.82781e-032 1.59028e-015 -3.18055e-015 3.18055e-015 -3.97569e-015 -6.36111e-015 -3.18055e-015 -4.77083e-015 -0 -4.41391e-032 7.95139e-016 3.18055e-015 8.82781e-032 1.59028e-015 -3.18055e-015 3.18055e-015 -3.97569e-015 -6.36111e-015 -3.18055e-015 -4.77083e-015 -0 8.82781e-032 1.59028e-015 -3.18055e-015 3.18055e-015 -3.97569e-015 -6.36111e-015 -3.18055e-015 -4.77083e-015 -0 4.62443 -26.7323 19.6721 25.6686 52.7544 -27.3083 5.86065 17.369 -2.17209 -14.3586 -7.36492 -16.7421 -9.06037 1.05053 10.8118 -11.6221 1.66511 -19.026 
